<svg width="144" height="144" viewBox="0 0 144 144" fill="none" xmlns="http://www.w3.org/2000/svg">
<path d="M67.0352 16.6631L58.8711 63.3281L51.0781 109.437C50.6452 112.591 50.8307 114.972 51.6348 116.58C52.5007 118.188 54.6035 119.054 57.9434 119.178C59.2422 119.24 61.9017 119.085 65.9219 118.714L63.6953 141.351C58.5618 143.021 53.0882 143.794 47.2744 143.67C37.8115 143.546 30.7298 140.763 26.0293 135.32C21.3288 129.878 19.4115 122.487 20.2774 113.147L28.4414 63.3281L32.1523 41.6191L36.5127 16.6631H67.0352Z" fill="#E06161"/>
<path d="M76.9648 127.337L85.1289 80.6719L92.9219 34.5635C93.3548 31.4092 93.1693 29.028 92.3652 27.42C91.4993 25.812 89.3965 24.946 86.0566 24.822C84.7578 24.76 82.0983 24.915 78.0781 25.286L80.3047 2.64899C85.4382 0.978995 90.9118 0.205995 96.7256 0.329995C106.188 0.453995 113.27 3.23699 117.971 8.67999C122.671 14.122 124.589 21.513 123.723 30.8525L115.559 80.6719L111.848 102.381L107.487 127.337H76.9648Z" fill="#E06161"/>
<path d="M12 84L18.3158 59H132L125.684 84H12Z" fill="#E06161"/>
</svg>
