<svg width="128" height="128" viewBox="0 0 128 128" fill="none" xmlns="http://www.w3.org/2000/svg">
<path fill-rule="evenodd" clip-rule="evenodd" d="M63.9993 5.10254C30.6523 5.10254 3.61133 32.1375 3.61133 65.4905C3.61133 92.1725 20.9143 114.808 44.9083 122.794C47.9253 123.354 49.0333 121.484 49.0333 119.889C49.0333 118.449 48.9773 113.692 48.9513 108.646C32.1513 112.299 28.6063 101.521 28.6063 101.521C25.8593 94.5405 21.9013 92.6845 21.9013 92.6845C16.4213 88.9365 22.3143 89.0145 22.3143 89.0145C28.3773 89.4395 31.5713 95.2375 31.5713 95.2375C36.9573 104.468 45.6983 101.8 49.1443 100.258C49.6863 96.3545 51.2513 93.6895 52.9783 92.1815C39.5653 90.6565 25.4643 85.4775 25.4643 62.3385C25.4643 55.7455 27.8243 50.3585 31.6873 46.1285C31.0593 44.6085 28.9923 38.4665 32.2713 30.1485C32.2713 30.1485 37.3413 28.5255 48.8813 36.3385C53.6993 34.9995 58.8663 34.3265 63.9993 34.3035C69.1293 34.3265 74.2993 34.9975 79.1263 36.3365C90.6523 28.5235 95.7163 30.1465 95.7163 30.1465C99.0033 38.4635 96.9363 44.6065 96.3093 46.1265C100.181 50.3565 102.524 55.7435 102.524 62.3365C102.524 85.5305 88.3973 90.6365 74.9503 92.1325C77.1173 94.0065 79.0473 97.6825 79.0473 103.316C79.0473 111.396 78.9773 117.899 78.9773 119.888C78.9773 121.495 80.0653 123.378 83.1253 122.785C107.105 114.791 124.388 92.1625 124.388 65.4905C124.387 32.1395 97.3493 5.10354 63.9993 5.10354V5.10254Z" fill="white"/>
<path d="M26.4836 91.8054C26.3506 92.1054 25.8786 92.1954 25.4486 91.9904C25.0086 91.7944 24.7636 91.3854 24.9056 91.0844C25.0356 90.7744 25.5086 90.6894 25.9456 90.8964C26.3856 91.0934 26.6356 91.5064 26.4826 91.8064L26.4836 91.8054ZM28.9296 94.5344C28.6426 94.8014 28.0796 94.6774 27.6976 94.2544C27.3016 93.8344 27.2276 93.2714 27.5206 93.0004C27.8186 92.7344 28.3646 92.8604 28.7606 93.2804C29.1546 93.7064 29.2326 94.2644 28.9306 94.5354L28.9296 94.5344ZM31.3116 98.0114C30.9416 98.2694 30.3356 98.0284 29.9616 97.4914C29.5916 96.9534 29.5916 96.3084 29.9716 96.0514C30.3446 95.7934 30.9416 96.0264 31.3216 96.5584C31.6896 97.1034 31.6896 97.7484 31.3116 98.0104V98.0114ZM34.5726 101.372C34.2426 101.737 33.5366 101.639 33.0206 101.142C32.4936 100.655 32.3466 99.9624 32.6776 99.5984C33.0136 99.2324 33.7226 99.3344 34.2416 99.8284C34.7686 100.314 34.9276 101.008 34.5746 101.371L34.5726 101.372ZM39.0726 103.323C38.9256 103.796 38.2476 104.011 37.5626 103.809C36.8796 103.602 36.4326 103.049 36.5726 102.571C36.7126 102.094 37.3956 101.871 38.0846 102.086C38.7676 102.292 39.2146 102.842 39.0726 103.323ZM44.0156 103.684C44.0326 104.182 43.4526 104.594 42.7356 104.604C42.0126 104.621 41.4276 104.217 41.4206 103.727C41.4206 103.224 41.9886 102.817 42.7106 102.803C43.4276 102.79 44.0166 103.19 44.0166 103.683L44.0156 103.684ZM48.6136 102.902C48.6996 103.387 48.2006 103.886 47.4876 104.019C46.7876 104.149 46.1376 103.847 46.0476 103.366C45.9616 102.868 46.4696 102.369 47.1696 102.24C47.8836 102.117 48.5236 102.41 48.6136 102.903V102.902Z" fill="white"/>
</svg>
