<svg width="661" height="649" viewBox="0 0 661 649" fill="none" xmlns="http://www.w3.org/2000/svg">
<path d="M18.8907 232C18.8907 232 3.24337 220.723 22.0201 205.664L65.7673 166.552C65.7673 166.552 78.2852 153.385 91.5202 164.857L495.22 470.453V616.993C495.22 616.993 495.025 640.004 465.49 637.462L18.8907 232Z" fill="black"/>
<path d="M122.945 326.456L18.8906 421.042C18.8906 421.042 8.19825 428.995 18.8906 443.205L67.2016 487.141C67.2016 487.141 78.6763 499.461 95.6275 485.446L205.941 401.812L122.945 326.456Z" fill="black"/>
<path d="M305.627 327.238L496.459 181.545L495.22 35.7876C495.22 35.7876 487.071 3.9764 459.884 20.5339L205.941 251.621L305.627 327.238Z" fill="black"/>
<path d="M465.49 637.657C476.574 649 490.005 645.284 490.005 645.284L638.719 572.014C657.757 559.042 655.084 542.941 655.084 542.941V105.407C655.084 86.177 635.394 79.5279 635.394 79.5279L506.499 17.4049C478.334 -2.66297e-06 459.884 20.5338 459.884 20.5338C459.884 20.5338 483.615 3.4549 495.22 35.7876V614.321C495.22 618.297 494.373 622.208 492.678 625.728C489.287 632.573 481.92 638.961 464.252 636.289L465.49 637.657Z" fill="black"/>
</svg>
